<?xml version="1.0" encoding="utf-8"?><svg viewBox="0 0 826 576" xmlns="http://www.w3.org/2000/svg" xmlns:xlink="http://www.w3.org/1999/xlink"><style>:root>svg{display:none}:root>svg:target{display:block}</style><svg fill="none" viewBox="0 0 14 14" id="blog-reset" xmlns="http://www.w3.org/2000/svg"><path d="M6.962 1.757V.107c0-.091.114-.14.192-.082l3.39 2.49a.105.105 0 010 .17l-3.39 2.49c-.078.058-.192.007-.192-.082V3.446a4.438 4.438 0 00-4.356 4.736c.147 2.2 1.939 3.983 4.138 4.124a4.443 4.443 0 004.667-3.72.844.844 0 01.837-.707c.512 0 .91.455.83.96a6.133 6.133 0 01-6.75 5.122C3.524 13.646 1.27 11.4.952 8.595a6.127 6.127 0 016.01-6.838z" fill="#fff"/></svg><svg fill="none" viewBox="0 0 24 24" id="bulbs-1" xmlns="http://www.w3.org/2000/svg"><path d="M24 12c0 6.627-5.373 12-12 12S0 18.627 0 12 5.373 0 12 0s12 5.373 12 12z" fill="#1B6FB7"/><path d="M15.477 17.28H13.34l.014-1.103h2.123c.732 0 1.341-.153 1.828-.457.488-.31.854-.741 1.097-1.294.249-.558.373-1.21.373-1.955v-.626c0-.586-.07-1.106-.21-1.56a3.16 3.16 0 00-.62-1.16 2.614 2.614 0 00-.998-.725c-.39-.164-.837-.246-1.343-.246h-2.306V7.043h2.306c.67 0 1.282.112 1.835.337.553.22 1.029.542 1.427.964.404.417.713.923.928 1.519.216.59.324 1.256.324 1.996v.612c0 .74-.108 1.409-.323 2.004a4.081 4.081 0 01-2.398 2.475c-.567.22-1.207.33-1.92.33zM14.064 7.043v10.238h-1.357V7.043h1.357zM3.84 8.707l7.418-1.988.249.928-7.419 1.987-.248-.927zM3.84 11.587L11.258 9.6l.249.927-7.419 1.988-.248-.928zM3.84 14.467l7.418-1.987.249.927-7.419 1.988-.248-.928zM3.84 17.348l7.418-1.988.249.927-7.419 1.988-.248-.927z" fill="#fff"/></svg><svg fill="none" viewBox="0 0 24 24" id="bulbs-10" xmlns="http://www.w3.org/2000/svg"><path d="M24 12c0 6.627-5.373 12-12 12S0 18.627 0 12 5.373 0 12 0s12 5.373 12 12z" fill="#1B6FB7"/><path d="M20.875 9.587a.366.366 0 00-.321-.224h-1.645a.366.366 0 00-.32.224 2.716 2.716 0 00-.095.337l-1.098-3.076A1.274 1.274 0 0016.2 6H7.8c-.533 0-1.013.34-1.194.848l-1.1 3.076a2.73 2.73 0 00-.093-.337.366.366 0 00-.321-.224H3.446a.366.366 0 00-.321.224c-.167.49-.167.771 0 1.262a.366.366 0 00.321.224h1.65l-.025.07a.852.852 0 00-.578.809v5.638c0 .226.182.41.406.41h2.04a.408.408 0 00.405-.41v-1.997h9.312v1.997c0 .226.182.41.405.41h2.04a.408.408 0 00.406-.41v-5.638a.853.853 0 00-.577-.81l-.025-.07.004.001h1.645a.366.366 0 00.321-.224c.167-.49.167-.771 0-1.262zM7.954 7.509h8.091l1.282 3.59H6.672l1.282-3.59zm.225 6.118H6.473a.667.667 0 01-.663-.671c0-.37.297-.67.663-.67h1.706c.367 0 .663.3.663.67 0 .37-.296.67-.663.67zm9.348 0H15.82a.667.667 0 01-.662-.671c0-.37.296-.67.662-.67h1.707c.366 0 .663.3.663.67 0 .37-.297.67-.663.67z" fill="#fff"/><circle cx="12.5" cy="5.5" r="1.5" fill="#F97830"/></svg><svg fill="none" viewBox="0 0 24 24" id="bulbs-11" xmlns="http://www.w3.org/2000/svg"><path d="M0 12c0 6.627 5.373 12 12 12s12-5.373 12-12S18.627 0 12 0 0 5.373 0 12z" fill="#1B6FB7"/><path d="M8.176 17.333h1.923l-.013-1.15h-1.91c-.658 0-1.206-.159-1.645-.476-.438-.322-.767-.772-.986-1.348-.224-.581-.336-1.26-.336-2.037v-.652c0-.61.064-1.152.19-1.626.127-.479.312-.882.557-1.209.244-.332.544-.583.898-.754a2.72 2.72 0 011.208-.257h2.075V6.667H8.062c-.603 0-1.153.117-1.65.351-.498.23-.926.564-1.285 1.004-.362.435-.64.962-.835 1.582-.194.616-.29 1.31-.29 2.081v.637c0 .772.096 1.468.29 2.088.194.616.475 1.14.841 1.575.363.435.802.77 1.316 1.004.51.23 1.086.344 1.727.344zM9.447 6.667v10.666h1.221V6.667h-1.22zM20 8h-8v.8h8V8zM20 10.667h-8v.8h8v-.8zM20 13.333h-8v.8h8v-.8zM20 16h-8v.8h8V16z" fill="#fff"/></svg><svg fill="none" viewBox="0 0 24 24" id="bulbs-12" xmlns="http://www.w3.org/2000/svg"><path d="M0 12c0 6.627 5.373 12 12 12s12-5.373 12-12S18.627 0 12 0 0 5.373 0 12z" fill="#1B6FB7"/><path d="M8.523 17.28h2.137l-.014-1.103H8.523c-.732 0-1.341-.153-1.828-.457a2.855 2.855 0 01-1.097-1.294c-.249-.558-.373-1.21-.373-1.955v-.626c0-.586.07-1.106.21-1.56.142-.46.348-.847.62-1.16.272-.32.604-.56.998-.725.39-.164.837-.246 1.343-.246h2.306V7.043H8.396c-.67 0-1.282.112-1.835.337a3.945 3.945 0 00-1.427.964 4.221 4.221 0 00-.929 1.519c-.215.59-.323 1.256-.323 1.996v.612c0 .74.108 1.409.323 2.004.216.59.528 1.095.936 1.512.403.417.89.738 1.462.963.567.22 1.207.33 1.92.33zM9.936 7.043v10.238h1.357V7.043H9.936zM20.16 8.707l-7.418-1.988-.249.928 7.419 1.987.248-.927z" fill="#fff"/><path d="M17 5.5c0 3-2 2.5-2 4.5s2 2 2 4.5c0 2-2 2.5-2 4.5" stroke="#fff"/><path d="M20.16 11.587L12.742 9.6l-.249.927 7.419 1.988.248-.928zM20.16 14.467l-7.418-1.987-.249.927 7.419 1.988.248-.928zM20.16 17.348l-7.418-1.988-.249.927 7.419 1.988.248-.927z" fill="#fff"/></svg><svg fill="none" viewBox="0 0 24 24" id="bulbs-13" xmlns="http://www.w3.org/2000/svg"><path d="M24 12c0 6.627-5.373 12-12 12S0 18.627 0 12 5.373 0 12 0s12 5.373 12 12z" fill="#1B6FB7"/><path d="M20.875 9.587a.366.366 0 00-.321-.224h-1.645a.366.366 0 00-.32.224 2.716 2.716 0 00-.095.337l-1.098-3.076A1.274 1.274 0 0016.2 6H7.8c-.533 0-1.013.34-1.194.848l-1.1 3.076a2.73 2.73 0 00-.093-.337.366.366 0 00-.321-.224H3.446a.366.366 0 00-.321.224c-.167.49-.167.771 0 1.262a.366.366 0 00.321.224h1.65l-.025.07a.852.852 0 00-.578.809v5.638c0 .226.182.41.406.41h2.04a.408.408 0 00.405-.41v-1.997h9.312v1.997c0 .226.182.41.405.41h2.04a.408.408 0 00.406-.41v-5.638a.853.853 0 00-.577-.81l-.025-.07.004.001h1.645a.366.366 0 00.321-.224c.167-.49.167-.771 0-1.262zM7.954 7.509h8.091l1.282 3.59H6.672l1.282-3.59zm.225 6.118H6.473a.667.667 0 01-.663-.671c0-.37.297-.67.663-.67h1.706c.367 0 .663.3.663.67 0 .37-.296.67-.663.67zm9.348 0H15.82a.667.667 0 01-.662-.671c0-.37.296-.67.662-.67h1.707c.366 0 .663.3.663.67 0 .37-.297.67-.663.67z" fill="#fff"/><ellipse cx="12" cy="15.5" rx="2" ry="1.5" fill="#F97830"/></svg><svg fill="none" viewBox="0 0 24 24" id="bulbs-14" xmlns="http://www.w3.org/2000/svg"><path d="M24 12c0 6.627-5.373 12-12 12S0 18.627 0 12 5.373 0 12 0s12 5.373 12 12z" fill="#1B6FB7"/><path d="M6 11.5l2-5 8 .5 2 4.5H6z" fill="#F97830"/><path d="M20.875 9.587a.366.366 0 00-.321-.224h-1.645a.366.366 0 00-.32.224 2.716 2.716 0 00-.095.337l-1.098-3.076A1.274 1.274 0 0016.2 6H7.8c-.533 0-1.013.34-1.194.848l-1.1 3.076a2.73 2.73 0 00-.093-.337.366.366 0 00-.321-.224H3.446a.366.366 0 00-.321.224c-.167.49-.167.771 0 1.262a.366.366 0 00.321.224h1.65l-.025.07a.852.852 0 00-.578.809v5.638c0 .226.182.41.406.41h2.04a.408.408 0 00.405-.41v-1.997h9.312v1.997c0 .226.182.41.405.41h2.04a.408.408 0 00.406-.41v-5.638a.853.853 0 00-.577-.81l-.025-.07.004.001h1.645a.366.366 0 00.321-.224c.167-.49.167-.771 0-1.262zM7.954 7.509h8.091l1.282 3.59H6.672l1.282-3.59zm.225 6.118H6.473a.667.667 0 01-.663-.671c0-.37.297-.67.663-.67h1.706c.367 0 .663.3.663.67 0 .37-.296.67-.663.67zm9.348 0H15.82a.667.667 0 01-.662-.671c0-.37.296-.67.662-.67h1.707c.366 0 .663.3.663.67 0 .37-.297.67-.663.67z" fill="#fff"/></svg><svg fill="none" viewBox="0 0 24 24" id="bulbs-15" xmlns="http://www.w3.org/2000/svg"><path d="M24 12c0 6.627-5.373 12-12 12S0 18.627 0 12 5.373 0 12 0s12 5.373 12 12z" fill="#1B6FB7"/><mask id="aha" style="mask-type:alpha" maskUnits="userSpaceOnUse" x="2" y="2" width="20" height="20"><path d="M22 12c0 5.523-4.477 10-10 10S2 17.523 2 12 6.477 2 12 2s10 4.477 10 10z" fill="#1B6FB7"/></mask><g mask="url(#aha)"><path d="M10.828 9.708l3.49-5.585L16.5 5l.612 6.104-6.283-1.396z" fill="#F97830"/><path d="M5.778 17.695H-4.611a4.25 4.25 0 00-8.5 0h-.944A.944.944 0 01-15 16.75v-5.194c0-.47.346-.869.81-.935l6.248-.893 4.017-4.91a.944.944 0 01.73-.346H7.668c.323 0 .623.165.797.438l2.296 3.608 2.732-4.097a.944.944 0 011.015-.393l1.889.472a.944.944 0 01-.458 1.833l-1.243-.31-2.43 3.644h3.902c.522 0 .944.423.944.944v6.14a.944.944 0 01-.944.944h-1.889a4.25 4.25 0 10-8.5 0zm-11.23-8.028H9.253L7.148 6.36h-9.895L-5.45 9.667zM-8.86 21a3.306 3.306 0 110-6.611 3.306 3.306 0 010 6.611zm0-1.889a1.417 1.417 0 100-2.833 1.417 1.417 0 000 2.833zm18.889 1.89a3.306 3.306 0 110-6.612 3.306 3.306 0 010 6.611zm0-1.89a1.417 1.417 0 100-2.833 1.417 1.417 0 000 2.833z" fill="#fff"/></g></svg><svg fill="none" viewBox="0 0 24 24" id="bulbs-16" xmlns="http://www.w3.org/2000/svg"><path d="M24 12c0 6.627-5.373 12-12 12S0 18.627 0 12 5.373 0 12 0s12 5.373 12 12z" fill="#1B6FB7"/><path d="M17 12H6l-2-1 2.5-2.5h7L17 12z" fill="#F97830"/><path fill-rule="evenodd" clip-rule="evenodd" d="M8.841 14.547c0 .793-.707 1.436-1.579 1.436s-1.578-.643-1.578-1.436c0-.792.706-1.435 1.578-1.435.872 0 1.58.643 1.58 1.435zM18.314 14.547c0 .793-.707 1.436-1.579 1.436s-1.579-.643-1.579-1.436c0-.792.707-1.435 1.579-1.435s1.579.643 1.579 1.435z" fill="#fff"/><path fill-rule="evenodd" clip-rule="evenodd" d="M10.223 10.958V8.805h2.704c.217 0 .414.072.553.215l2.13 1.938h-5.387zm-.789 0H4.441L6.573 9.02a.819.819 0 01.552-.215h2.309v2.153zm9.275 0h-1.638a.751.751 0 01-.552-.215L14.032 8.5a1.65 1.65 0 00-1.125-.413H7.125c-.414 0-.829.144-1.125.413l-2.447 2.243a.687.687 0 00-.237.52v1.849c0 .79.71 1.435 1.58 1.435h.196c0-1.094.967-1.974 2.171-1.974 1.204 0 2.171.88 2.171 1.974h5.13c0-1.094.968-1.974 2.172-1.974 1.203 0 2.17.88 2.17 1.974h.987c.434 0 .79-.323.79-.717v-1.077c0-.987-.889-1.795-1.974-1.795z" fill="#fff"/></svg><svg fill="none" viewBox="0 0 24 24" id="bulbs-2" xmlns="http://www.w3.org/2000/svg"><path d="M24 12c0 6.627-5.373 12-12 12S0 18.627 0 12 5.373 0 12 0s12 5.373 12 12z" fill="#1B6FB7"/><path d="M15.824 17.333h-1.923l.013-1.15h1.91c.658 0 1.206-.159 1.645-.476.438-.322.767-.772.986-1.348.224-.581.336-1.26.336-2.037v-.652a6.32 6.32 0 00-.19-1.626c-.127-.479-.312-.882-.557-1.209a2.4 2.4 0 00-.898-.754 2.72 2.72 0 00-1.208-.257h-2.075V6.667h2.075c.603 0 1.153.117 1.65.351.498.23.926.564 1.285 1.004.362.435.64.962.835 1.582.194.616.29 1.31.29 2.081v.637c0 .772-.096 1.468-.29 2.088a4.51 4.51 0 01-.841 1.575c-.363.435-.802.77-1.316 1.004-.51.23-1.086.344-1.727.344zM14.553 6.667v10.666h-1.221V6.667h1.22zM4 8h8v.8H4V8zM4 10.667h8v.8H4v-.8zM4 13.333h8v.8H4v-.8zM4 16h8v.8H4V16z" fill="#fff"/></svg><svg fill="none" viewBox="0 0 24 24" id="bulbs-3" xmlns="http://www.w3.org/2000/svg"><path d="M24 12c0 6.627-5.373 12-12 12S0 18.627 0 12 5.373 0 12 0s12 5.373 12 12z" fill="#1B6FB7"/><path d="M19.804 11.648h-2.378a.352.352 0 100 .704h2.378a.352.352 0 100-.704zM16.997 9.997l1.4-1.743a.352.352 0 10-.496-.497L16.5 9.5a.352.352 0 00.497.497zM16.997 14a.351.351 0 10-.497.497l1.401 1.745a.351.351 0 10.497-.497L16.997 14zM10.045 10.935h-1.09v1.055h1.09a.528.528 0 000-1.055z" fill="#fff"/><path d="M12.682 8H6.318A1.32 1.32 0 005 9.318v6.364A1.32 1.32 0 006.318 17h6.364A1.32 1.32 0 0014 15.682V9.318A1.32 1.32 0 0012.682 8zm-2.637 5.045h-1.09v1.846a.264.264 0 01-.264.263h-.527a.264.264 0 01-.264-.263v-4.746c0-.146.118-.264.264-.264h1.88c.873 0 1.583.71 1.583 1.582 0 .872-.71 1.582-1.582 1.582z" fill="#fff"/></svg><svg fill="none" viewBox="0 0 24 24" id="bulbs-4" xmlns="http://www.w3.org/2000/svg"><path d="M24 12c0 6.627-5.373 12-12 12S0 18.627 0 12 5.373 0 12 0s12 5.373 12 12z" fill="#1B6FB7"/><path d="M15.477 17.28H13.34l.014-1.103h2.123c.732 0 1.341-.153 1.828-.457.488-.31.854-.741 1.097-1.294.249-.558.373-1.21.373-1.955v-.626c0-.586-.07-1.106-.21-1.56a3.16 3.16 0 00-.62-1.16 2.614 2.614 0 00-.998-.725c-.39-.164-.837-.246-1.343-.246h-2.306V7.043h2.306c.67 0 1.282.112 1.835.337.553.22 1.029.542 1.427.964.404.417.713.923.928 1.519.216.59.324 1.256.324 1.996v.612c0 .74-.108 1.409-.323 2.004a4.081 4.081 0 01-2.398 2.475c-.567.22-1.207.33-1.92.33zM14.064 7.043v10.238h-1.357V7.043h1.357zM3.84 8.707l7.418-1.988.249.928-7.419 1.987-.248-.927zM3.84 11.587L11.258 9.6l.249.927-7.419 1.988-.248-.928zM3.84 14.467l7.418-1.987.249.927-7.419 1.988-.248-.928z" fill="#fff"/><path d="M9 5.5C9 8.5 7 8 7 10s2 2 2 4.5c0 2-2 2.5-2 4.5" stroke="#fff"/><path d="M3.84 17.348l7.418-1.988.249.927-7.419 1.988-.248-.927z" fill="#fff"/></svg><svg fill="none" viewBox="0 0 24 24" id="bulbs-5" xmlns="http://www.w3.org/2000/svg"><path d="M24 12c0 6.627-5.373 12-12 12S0 18.627 0 12 5.373 0 12 0s12 5.373 12 12z" fill="#1B6FB7"/><path d="M17.23 8.97l.001-.001a.274.274 0 01.29.033L21 11.786h0l-.063.078a.18.18 0 010 .272l-3.707-3.167zm0 0a.275.275 0 00-.154.246v1.466h-3.728c-.247 0-.448.2-.448.448v1.74c0 .247.2.448.448.448h3.728v1.466c0 .105.06.2.155.247V8.969zm.291 6.027l3.48-2.783-3.727 2.726c.06.03.132.021.184-.02l.063.078h0zm.103-1.953a.274.274 0 00-.274-.274h-3.902v-1.54h3.902a.274.274 0 00.274-.274v-1.17L20.39 12l-2.767 2.214v-1.17zM6.77 15.03h-.001a.274.274 0 01-.29-.032L3 12.214h0l.063-.078a.18.18 0 010-.272l3.707 3.167zm0 0a.275.275 0 00.154-.246v-1.466h3.728c.247 0 .448-.201.448-.448v-1.74c0-.247-.2-.448-.448-.448H6.924V9.216a.274.274 0 00-.155-.247v6.062zm-.291-6.028l-3.48 2.784 3.727-2.727a.174.174 0 00-.184.021l-.063-.078h0zm-.103 1.954c0 .151.123.274.274.274h3.902v1.54H6.65a.274.274 0 00-.274.274v1.17L3.61 12l2.767-2.214v1.17z" fill="#fff" stroke="#fff" stroke-width=".2"/></svg><svg fill="none" viewBox="0 0 24 24" id="bulbs-6" xmlns="http://www.w3.org/2000/svg"><path d="M24 12c0 6.627-5.373 12-12 12S0 18.627 0 12 5.373 0 12 0s12 5.373 12 12z" fill="#1B6FB7"/><path d="M15.824 17.333h-1.923l.013-1.15h1.91c.658 0 1.206-.159 1.645-.476.438-.322.767-.772.986-1.348.224-.581.336-1.26.336-2.037v-.652a6.32 6.32 0 00-.19-1.626c-.127-.479-.312-.882-.557-1.209a2.4 2.4 0 00-.898-.754 2.72 2.72 0 00-1.208-.257h-2.075V6.667h2.075c.603 0 1.153.117 1.65.351.498.23.926.564 1.285 1.004.362.435.64.962.835 1.582.194.616.29 1.31.29 2.081v.637c0 .772-.096 1.468-.29 2.088a4.51 4.51 0 01-.841 1.575c-.363.435-.802.77-1.316 1.004-.51.23-1.086.344-1.727.344zM14.553 6.667v10.666h-1.221V6.667h1.22zM4 8h8v.8H4V8zM4 10.667h8v.8H4v-.8zM4 13.333h8v.8H4v-.8zM4 16h8v.8H4V16z" fill="#fff"/></svg><svg fill="none" viewBox="0 0 24 24" id="bulbs-7" xmlns="http://www.w3.org/2000/svg"><path d="M24 12c0 6.627-5.373 12-12 12S0 18.627 0 12 5.373 0 12 0s12 5.373 12 12z" fill="#1B6FB7"/><path d="M20.875 9.587a.366.366 0 00-.321-.224h-1.645a.366.366 0 00-.32.224 2.716 2.716 0 00-.095.337l-1.098-3.076A1.274 1.274 0 0016.2 6H7.8c-.533 0-1.013.34-1.194.848l-1.1 3.076a2.73 2.73 0 00-.093-.337.366.366 0 00-.321-.224H3.446a.366.366 0 00-.321.224c-.167.49-.167.771 0 1.262a.366.366 0 00.321.224h1.65l-.025.07a.852.852 0 00-.578.809v5.638c0 .226.182.41.406.41h2.04a.408.408 0 00.405-.41v-1.997h9.312v1.997c0 .226.182.41.405.41h2.04a.408.408 0 00.406-.41v-5.638a.853.853 0 00-.577-.81l-.025-.07.004.001h1.645a.366.366 0 00.321-.224c.167-.49.167-.771 0-1.262zM7.954 7.509h8.091l1.282 3.59H6.672l1.282-3.59zm.225 6.118H6.473a.667.667 0 01-.663-.671c0-.37.297-.67.663-.67h1.706c.367 0 .663.3.663.67 0 .37-.296.67-.663.67zm9.348 0H15.82a.667.667 0 01-.662-.671c0-.37.296-.67.662-.67h1.707c.366 0 .663.3.663.67 0 .37-.297.67-.663.67z" fill="#fff"/><circle cx="19.5" cy="13.5" r="1.5" fill="#F97830"/></svg><svg fill="none" viewBox="0 0 24 24" id="bulbs-8" xmlns="http://www.w3.org/2000/svg"><path d="M24 12c0 6.627-5.373 12-12 12S0 18.627 0 12 5.373 0 12 0s12 5.373 12 12z" fill="#1B6FB7"/><path d="M17.23 8.97l.001-.001a.274.274 0 01.29.033L21 11.786h0l-.063.078a.18.18 0 010 .272l-3.707-3.167zm0 0a.275.275 0 00-.154.246v1.466h-3.728c-.247 0-.448.2-.448.448v1.74c0 .247.2.448.448.448h3.728v1.466c0 .105.06.2.155.247V8.969zm.291 6.027l3.48-2.783-3.727 2.726c.06.03.132.021.184-.02l.063.078h0zm.103-1.953a.274.274 0 00-.274-.274h-3.902v-1.54h3.902a.274.274 0 00.274-.274v-1.17L20.39 12l-2.767 2.214v-1.17zM6.77 15.03h-.001a.274.274 0 01-.29-.032L3 12.214h0l.063-.078a.18.18 0 010-.272l3.707 3.167zm0 0a.275.275 0 00.154-.246v-1.466h3.728c.247 0 .448-.201.448-.448v-1.74c0-.247-.2-.448-.448-.448H6.924V9.216a.274.274 0 00-.155-.247v6.062zm-.291-6.028l-3.48 2.784 3.727-2.727a.174.174 0 00-.184.021l-.063-.078h0zm-.103 1.954c0 .151.123.274.274.274h3.902v1.54H6.65a.274.274 0 00-.274.274v1.17L3.61 12l2.767-2.214v1.17z" fill="#fff" stroke="#fff" stroke-width=".2"/></svg><svg fill="none" viewBox="0 0 24 24" id="bulbs-9" xmlns="http://www.w3.org/2000/svg"><path d="M0 12c0 6.627 5.373 12 12 12s12-5.373 12-12S18.627 0 12 0 0 5.373 0 12z" fill="#1B6FB7"/><path d="M8.523 17.28h2.137l-.014-1.103H8.523c-.732 0-1.341-.153-1.828-.457a2.855 2.855 0 01-1.097-1.294c-.249-.558-.373-1.21-.373-1.955v-.626c0-.586.07-1.106.21-1.56.142-.46.348-.847.62-1.16.272-.32.604-.56.998-.725.39-.164.837-.246 1.343-.246h2.306V7.043H8.396c-.67 0-1.282.112-1.835.337a3.945 3.945 0 00-1.427.964 4.221 4.221 0 00-.929 1.519c-.215.59-.323 1.256-.323 1.996v.612c0 .74.108 1.409.323 2.004.216.59.528 1.095.936 1.512.403.417.89.738 1.462.963.567.22 1.207.33 1.92.33zM9.936 7.043v10.238h1.357V7.043H9.936zM20.16 8.707l-7.418-1.988-.249.928 7.419 1.987.248-.927zM20.16 11.587L12.742 9.6l-.249.927 7.419 1.988.248-.928zM20.16 14.467l-7.418-1.987-.249.927 7.419 1.988.248-.928zM20.16 17.348l-7.418-1.988-.249.927 7.419 1.988.248-.927z" fill="#fff"/></svg><svg fill="none" viewBox="0 0 29 29" id="f150-arrow-next" xmlns="http://www.w3.org/2000/svg"><circle r="14.5" transform="matrix(-1 0 0 1 14.5 14.5)" fill="#1B6FB7"/><path d="M17.83 15.892l-5.333 4.05a.26.26 0 01-.332-.003.496.496 0 01-.165-.389v-8.1c0-.16.063-.308.165-.389a.273.273 0 01.168-.061c.056 0 .113.019.164.058l5.333 4.05c.105.08.17.23.17.392a.495.495 0 01-.17.392z" fill="#fff"/></svg><svg fill="none" viewBox="0 0 29 29" id="f150-arrow-prev" xmlns="http://www.w3.org/2000/svg"><circle cx="14.5" cy="14.5" r="14.5" fill="#1B6FB7"/><path d="M11.17 15.892l5.333 4.05a.26.26 0 00.332-.003.496.496 0 00.165-.389v-8.1a.496.496 0 00-.165-.389.273.273 0 00-.168-.061.268.268 0 00-.164.058l-5.333 4.05a.495.495 0 00-.17.392c0 .163.065.312.17.392z" fill="#fff"/></svg><svg fill="none" viewBox="0 0 15 15" id="header-mobile-search" xmlns="http://www.w3.org/2000/svg"><path opacity=".29" d="M14.837 14.052l-4.033-4.033a6.082 6.082 0 001.418-3.908A6.118 6.118 0 006.112 0 6.118 6.118 0 000 6.111a6.118 6.118 0 006.111 6.111 6.082 6.082 0 003.908-1.418l4.033 4.033a.554.554 0 00.785 0 .555.555 0 000-.785zM1.111 6.112c0-2.758 2.243-5 5-5s5 2.242 5 4.999c0 2.757-2.243 5-5 5s-5-2.243-5-5z" fill="#1B6FB7"/></svg><svg fill="none" viewBox="0 0 18 36" id="index-blog-posts-img-arrow" xmlns="http://www.w3.org/2000/svg"><path d="M0 18L17.25.68v34.64L0 18z" fill="#1B6FB7"/></svg><svg fill="none" viewBox="0 0 50 21" id="index-browse-white-arrow" xmlns="http://www.w3.org/2000/svg"><path d="M26.156 20.18a2 2 0 01-2.312 0L1.547 4.383C-.043 3.255.754.75 2.703.75h44.594c1.95 0 2.747 2.505 1.156 3.632L26.156 20.18z" fill="#fff"/></svg><svg fill="none" viewBox="0 0 44 26" id="index-choose-decor-arrow" xmlns="http://www.w3.org/2000/svg"><path d="M25.273 24.165a5 5 0 01-6.546 0L1.827 9.53C-1.673 6.499.471.75 5.1.75h33.8c4.63 0 6.773 5.749 3.273 8.78l-16.9 14.635z" fill="#fff"/></svg><svg fill="none" viewBox="0 0 11 11" id="index-find-reset" xmlns="http://www.w3.org/2000/svg"><path d="M5.47 1.38V.085c0-.072.09-.11.151-.066l2.664 1.958a.082.082 0 010 .132L5.621 4.067c-.06.045-.15.004-.15-.065V2.708a3.487 3.487 0 00-3.422 3.721 3.502 3.502 0 003.25 3.24 3.49 3.49 0 003.668-2.923.663.663 0 01.657-.555c.402 0 .715.357.652.753a4.819 4.819 0 01-5.303 4.025A4.812 4.812 0 01.748 6.753 4.814 4.814 0 015.471 1.38z" fill="#fff"/></svg><svg fill="none" viewBox="0 0 20 20" id="index-find-search" xmlns="http://www.w3.org/2000/svg"><path d="M9.028.77C4.482.77.779 4.474.779 9.02c0 4.545 3.703 8.255 8.249 8.255 1.941 0 3.727-.68 5.138-1.81l3.436 3.434a.919.919 0 001.3-1.298l-3.436-3.436a8.214 8.214 0 001.812-5.145c0-4.546-3.705-8.248-8.25-8.248zm0 1.834a6.4 6.4 0 016.414 6.415 6.406 6.406 0 01-6.414 6.422 6.406 6.406 0 01-6.415-6.422 6.4 6.4 0 016.415-6.415z" fill="#fff"/></svg><svg fill="none" viewBox="0 0 15 17" id="index-find-triangle" xmlns="http://www.w3.org/2000/svg"><path d="M15 8.5L0 0v17l15-8.5z" fill="#fff"/></svg><svg fill="none" viewBox="0 0 9 7" id="index-find-triangle-down" xmlns="http://www.w3.org/2000/svg"><path d="M4.5 7L9 0H0l4.5 7z" fill="#fff"/></svg><svg fill="none" viewBox="0 0 50 21" id="index-footer-black-arrow" xmlns="http://www.w3.org/2000/svg"><path d="M26.156 20.18a2 2 0 01-2.312 0L1.547 4.383C-.043 3.255.754.75 2.703.75h44.594c1.95 0 2.747 2.505 1.156 3.632L26.156 20.18z" fill="#03080B"/></svg><svg fill="none" viewBox="0 0 81 72" id="index-footer-decor" xmlns="http://www.w3.org/2000/svg"><path d="M.663 0l79.674 71.5H.663V0z" fill="#1B6FB7"/></svg><svg fill="none" viewBox="0 0 10 16" id="index-footer-facebook" xmlns="http://www.w3.org/2000/svg"><path d="M3.277 8.998h-1.94c-.313 0-.411-.116-.411-.407V6.247c0-.31.117-.407.411-.407h1.94V4.135c0-.775.137-1.511.529-2.19.411-.697 1-1.162 1.744-1.433C6.04.337 6.53.26 7.058.26h1.92c.275 0 .392.116.392.387v2.21c0 .27-.117.387-.392.387-.529 0-1.058 0-1.587.02-.529 0-.803.251-.803.793-.02.582 0 1.144 0 1.744h2.273c.313 0 .43.117.43.427v2.344c0 .31-.097.407-.43.407H6.588v6.317c0 .329-.098.445-.45.445h-2.45c-.294 0-.411-.116-.411-.407V8.998z" fill="#000"/></svg><svg fill="none" viewBox="0 0 50 21" id="index-footer-grey-arrow" xmlns="http://www.w3.org/2000/svg"><path d="M26.156 20.18a2 2 0 01-2.312 0L1.547 4.383C-.043 3.255.754.75 2.703.75h44.594c1.95 0 2.747 2.505 1.156 3.632L26.156 20.18z" fill="#1C1C1C"/></svg><svg fill="none" viewBox="0 0 14 14" id="index-footer-instagram" xmlns="http://www.w3.org/2000/svg"><path d="M10.68 3.011a.308.308 0 10.001.616.308.308 0 000-.616zM7 4.273a2.73 2.73 0 00-2.727 2.726A2.73 2.73 0 007 9.725 2.73 2.73 0 009.726 7 2.73 2.73 0 007 4.273z" fill="#000"/><path d="M9.86.666H4.138A3.476 3.476 0 00.666 4.138V9.86a3.476 3.476 0 003.472 3.473H9.86a3.476 3.476 0 003.473-3.473V4.138A3.476 3.476 0 009.86.666zM7 10.474a3.478 3.478 0 01-3.475-3.475A3.478 3.478 0 017 3.525 3.478 3.478 0 0110.474 7a3.478 3.478 0 01-3.475 3.475zm3.681-6.101a1.057 1.057 0 010-2.111 1.057 1.057 0 010 2.11z" fill="#000"/></svg><svg fill="none" viewBox="0 0 50 21" id="index-footer-white-arrow" xmlns="http://www.w3.org/2000/svg"><path d="M26.156 20.18a2 2 0 01-2.312 0L1.547 4.383C-.043 3.255.754.75 2.703.75h44.594c1.95 0 2.747 2.505 1.156 3.632L26.156 20.18z" fill="#fff"/></svg><svg fill="none" viewBox="0 0 16 12" id="index-footer-youtube" xmlns="http://www.w3.org/2000/svg"><path d="M15.451 1.869C15.37 1.19 14.731.54 14.063.454a49.754 49.754 0 00-12.273 0C1.121.54.483 1.19.401 1.869a31.63 31.63 0 000 7.377c.082.678.72 1.328 1.39 1.415 4.074.506 8.196.506 12.272 0 .668-.086 1.307-.737 1.388-1.415a31.625 31.625 0 000-7.377zM6.636 8.138v-5.16l3.87 2.58-3.87 2.58z" fill="#000"/></svg><svg fill="none" viewBox="0 0 126 28" id="index-logo" xmlns="http://www.w3.org/2000/svg"><path d="M8.344 27.384c-2.816 0-4.821-.736-6.016-2.208-1.173-1.493-1.76-3.637-1.76-6.432V9.4c0-2.859.587-5.013 1.76-6.464C3.501 1.464 5.507.728 8.344.728c2.71 0 4.63.65 5.76 1.952 1.13 1.301 1.696 3.147 1.696 5.536v2.24h-5.6V7.864c0-1.003-.107-1.77-.32-2.304-.213-.533-.725-.8-1.536-.8-.81 0-1.344.288-1.6.864-.256.555-.384 1.333-.384 2.336v12.192c0 1.024.128 1.813.384 2.368.277.533.81.8 1.6.8s1.29-.267 1.504-.8c.235-.555.352-1.344.352-2.368v-2.72h5.6v2.24c0 2.432-.565 4.33-1.696 5.696-1.13 1.344-3.05 2.016-5.76 2.016zm14.127-.064c-.896 0-1.674-.213-2.336-.64a4.502 4.502 0 01-1.472-1.696 5.205 5.205 0 01-.48-2.176c0-1.43.363-2.603 1.088-3.52a7.802 7.802 0 012.592-2.144c1.024-.512 2.336-1.045 3.936-1.6v-1.856c0-.533-.085-.939-.256-1.216-.15-.277-.426-.416-.832-.416-.405 0-.693.128-.864.384-.17.256-.266.619-.288 1.088l-.128 1.344-4.864-.192c.086-2.219.672-3.85 1.76-4.896 1.088-1.067 2.71-1.6 4.864-1.6 1.814 0 3.2.512 4.16 1.536.96 1.003 1.44 2.347 1.44 4.032v8.64c0 1.877.107 3.413.32 4.608H26.44c-.192-1.43-.33-2.304-.416-2.624-.256.853-.682 1.557-1.28 2.112-.597.555-1.354.832-2.272.832zm1.856-3.52c.534 0 1.024-.31 1.472-.928v-5.056c-.96.555-1.685 1.141-2.176 1.76-.49.597-.736 1.333-.736 2.208 0 .619.128 1.11.384 1.472.256.363.608.544 1.056.544zm9.619-15.296h5.216v3.072c.64-1.13 1.259-1.963 1.856-2.496a3.068 3.068 0 012.112-.8c.299 0 .565.032.8.096v5.184c-.64-.256-1.205-.384-1.696-.384-1.13 0-2.155.597-3.072 1.792V27h-5.216V8.504zM54.608 1.08h6.752c1.685 0 3.114.181 4.287.544a5.232 5.232 0 012.88 2.016c.726 1.003 1.088 2.41 1.088 4.224 0 1.536-.33 2.73-.991 3.584-.662.853-1.6 1.397-2.816 1.632 1.493.192 2.634.821 3.423 1.888.79 1.067 1.184 2.517 1.184 4.352 0 5.12-2.613 7.68-7.84 7.68h-7.968V1.08zm6.848 10.368c1.215 0 2.037-.277 2.463-.832.449-.555.672-1.419.672-2.592 0-1.024-.277-1.792-.831-2.304-.555-.533-1.366-.8-2.432-.8h-.992v6.528h1.12zM61.55 23c1.216 0 2.07-.299 2.56-.896.513-.619.768-1.579.768-2.88 0-1.472-.255-2.507-.767-3.104-.491-.597-1.355-.896-2.592-.896h-1.184V23h1.215zm14.845 4.32c-1.11 0-1.963-.395-2.56-1.184-.597-.81-.896-1.856-.896-3.136V8.504h5.216v13.888c0 .47.085.821.256 1.056.17.235.448.352.832.352.341 0 .853-.192 1.536-.576V8.504h5.184V27H80.78v-1.696c-1.45 1.344-2.912 2.016-4.384 2.016zM89.481 1.08h5.184V27h-5.184V1.08zm17.741 26.24c-1.322 0-2.645-.576-3.968-1.728V27h-5.216V1.08h5.216v8.768a6.589 6.589 0 011.984-1.248c.704-.277 1.387-.416 2.048-.416 1.344 0 2.336.501 2.976 1.504.662 1.003.992 2.315.992 3.936v7.968c0 1.77-.352 3.168-1.056 4.192-.704 1.024-1.696 1.536-2.976 1.536zm-2.528-3.36c.47 0 .811-.192 1.024-.576.214-.384.32-.885.32-1.504v-8.64c0-.576-.106-1.035-.32-1.376-.192-.363-.512-.544-.96-.544-.49 0-.992.203-1.504.608v11.52c.47.341.95.512 1.44.512zm15.228 3.36c-1.643 0-3.008-.363-4.096-1.088-1.067-.747-1.931-1.93-2.592-3.552l3.552-1.568c.341.853.736 1.515 1.184 1.984.469.47.981.704 1.536.704.81 0 1.216-.32 1.216-.96 0-.47-.16-.885-.48-1.248-.32-.384-1.014-1.013-2.08-1.888l-1.344-1.12c-1.11-.939-1.92-1.792-2.432-2.56-.491-.768-.736-1.685-.736-2.752 0-.981.256-1.856.768-2.624a5.4 5.4 0 012.112-1.792 6.086 6.086 0 012.816-.672c1.514 0 2.773.416 3.776 1.248 1.024.81 1.749 1.984 2.176 3.52l-3.36 1.536a5.24 5.24 0 00-.992-1.824c-.448-.555-.939-.832-1.472-.832-.342 0-.619.096-.832.288-.192.192-.288.448-.288.768 0 .384.202.8.608 1.248.426.448 1.088 1.035 1.984 1.76l1.312 1.152c1.066.896 1.888 1.739 2.464 2.528.576.768.864 1.675.864 2.72 0 1.045-.267 1.952-.8 2.72-.512.747-1.206 1.323-2.08 1.728a6.71 6.71 0 01-2.784.576z" fill="#000"/></svg><svg fill="none" viewBox="0 0 9 6" id="index-menu-arrow" xmlns="http://www.w3.org/2000/svg"><path d="M4.892 5.83L8.942.497A.26.26 0 008.94.165.496.496 0 008.55 0H.45a.496.496 0 00-.389.165A.273.273 0 000 .333C0 .39.019.446.058.497l4.05 5.333c.08.105.23.17.392.17a.495.495 0 00.392-.17z" fill="#1B6FB7"/></svg><svg fill="none" viewBox="0 0 285 226" id="index-models-bg" xmlns="http://www.w3.org/2000/svg"><mask id="bka" style="mask-type:alpha" maskUnits="userSpaceOnUse" x="0" y="20" width="262" height="180"><rect y="20" width="262" height="180" rx="15" fill="#fff"/></mask><g mask="url(#bka)"><path opacity=".4" d="M299.085-123H381L231.915 279H150l149.085-402z" fill="#EBEBEB"/><path opacity=".4" d="M217.085-123H299L149.915 279H68l149.085-402z" fill="#F5F5F5"/></g></svg><svg fill="none" viewBox="0 0 152 153" id="index-top-decor-1" xmlns="http://www.w3.org/2000/svg"><path d="M152 2H28C13.64 2 2 13.64 2 28v125" stroke="url(#blpaint0_linear_61_12286)" stroke-width="4"/><defs><linearGradient id="blpaint0_linear_61_12286" x1="14.015" y1="6.012" x2="67.985" y2="54.425" gradientUnits="userSpaceOnUse"><stop stop-color="#1B6FB7"/><stop offset="1" stop-color="#1B6FB7" stop-opacity="0"/></linearGradient></defs></svg><svg fill="none" viewBox="0 0 826 576" id="vehicles-car" xmlns="http://www.w3.org/2000/svg"><path d="M619.998 294.198H639.9c10.916.485 5.163 26.652-5.753 26.166h-15.863l-10.848-5.773 12.562-20.393z" fill="#404344"/><path d="M565.229 300.729c-20.021-1.164-54.597 3.348-83.344 6.602l-233.58-12.408-2.601 12.408 221.536 18.994h88.571l9.418-25.596z" fill="#798896"/><path opacity=".54" d="M206.178 343.559l446.732 25.07-6.281-56.045s-46.816-39.963-93.835-55.988c-22.432-7.645-58.819-15.639-139.245-15.639-72.532 0-95.064 3.049-117.353 10.557-45.433 15.304-63.551 33.275-87.628 51.459l-2.39 40.586z" fill="#F7F7F6"/><path d="M507.799 304.361c-14.654-31.817-25.638-50.785-38.815-62.325l-4.838 2.648c9.582 13.437 22.157 36.065 27.243 64.721l16.41-5.044zM485.973 300.729l-9.656-11.844-11.823-4.494c4.565-1.164.369-15.423-4.196-16.576 0 0-20.518-1.976-24.045 1.566-3.529 3.542-.447 13.17-.447 13.17s-3.925.865-9.374 6.335c-5.45 5.47-3.131 20.52-3.131 20.52h-6.099s-1.057-17.416-5.492-21.869c-4.435-4.452-16.17-2.797-16.17-2.797s-1.589-10.449-7.111-15.993c-5.522-5.543-18.377-4.337-23.494.801-5.118 5.137-4.983 15.264-4.983 15.264l-11.238 2.431v23.382l125.2 11.814 12.059-21.71z" fill="#939295"/><path d="M428.796 251.514c-25.579 3.62-42.622 28.646-44.862 43.409l-33.695-6.038c13.784-17.784 33.424-34.573 53.517-40.937l25.04 3.566z" fill="#939295"/><path d="M246.837 300.803l16.909-9.557c26.999-6.038 70.941-5.807 117.87-4.471l2.318 27.908H245.703l1.134-13.88z" fill="#939295"/><path d="M627.398 309.887c-29.973-26.451-56.749-42.094-88.479-50.839-31.246-5.695-186.941-2.068-238.288-1.491 23.214-12.624 65.889-18.858 141.758-14.197l104.189 10.196c37.45 14.616 68.756 34.776 100.051 59.028l-19.231-2.697z" fill="#F7F7F6"/><path d="M609.428 307.154s-45.808-20.614-70.299-15.366c-24.491 5.247-28.573 24.135-28.573 24.135 35.318.833 97.556 2.969 98.872-8.769z" fill="#939295"/><path d="M526.017 327.381c-11.1 0-20.131-9.065-20.131-20.208 0-11.144 9.031-20.208 20.131-20.208s20.13 9.064 20.13 20.208c0 11.143-9.03 20.208-20.13 20.208zm0-36.575c-8.99 0-16.304 7.342-16.304 16.367 0 9.024 7.314 16.366 16.304 16.366 8.99 0 16.305-7.342 16.305-16.366 0-9.025-7.315-16.367-16.305-16.367z" fill="#939295"/><path d="M632.347 302.36l-242.83-13.475-3.227 17.03c66.355 10.883 147.645 15.342 243.782 16.523l2.275-20.078z" fill="#939295"/><path d="M395.733 466c18.467 0 33.437-21.188 33.437-47.326 0-26.137-14.97-47.326-33.437-47.326s-33.437 21.189-33.437 47.326c0 26.138 14.97 47.326 33.437 47.326z" fill="#404344"/><path d="M395.733 371.348h-23.599V466h23.599v-94.652z" fill="#404344"/><path d="M372.134 466c18.467 0 33.438-21.188 33.438-47.326 0-26.137-14.971-47.326-33.438-47.326-18.467 0-33.437 21.189-33.437 47.326 0 26.138 14.97 47.326 33.437 47.326z" fill="#1C1C1C"/><path d="M691.13 466c18.467 0 33.438-21.188 33.438-47.326 0-26.137-14.971-47.326-33.438-47.326-18.467 0-33.437 21.189-33.437 47.326 0 26.138 14.97 47.326 33.437 47.326z" fill="#404344"/><path d="M691.131 371.348h-23.599V466h23.599v-94.652z" fill="#404344"/><path d="M667.532 466c18.467 0 33.438-21.188 33.438-47.326 0-26.137-14.971-47.326-33.438-47.326-18.467 0-33.437 21.189-33.437 47.326 0 26.138 14.97 47.326 33.437 47.326z" fill="#1C1C1C"/><path d="M184.401 433.379c3.484 3.497 124.337 2.674 257.524 3.407 152.971.841 319.272.996 323.686-3.435l-22.283-86.688H168.854l-7.862 50.028c4.506 19.889 12.211 29.467 23.409 36.688z" fill="#1C1C1C"/><path d="M242.748 466c18.467 0 33.437-21.188 33.437-47.326 0-26.137-14.97-47.326-33.437-47.326s-33.438 21.189-33.438 47.326c0 26.138 14.971 47.326 33.438 47.326z" fill="#1C1C1C"/><path d="M242.748 371.348h-23.599V466h23.599v-94.652z" fill="#1C1C1C"/><path d="M219.149 466c18.467 0 33.438-21.188 33.438-47.326 0-26.137-14.971-47.326-33.438-47.326-18.467 0-33.437 21.189-33.437 47.326 0 26.138 14.97 47.326 33.437 47.326z" fill="#404344"/><path d="M218.145 452.353c13.141 0 23.795-15.078 23.795-33.679 0-18.6-10.654-33.679-23.795-33.679-13.142 0-23.795 15.079-23.795 33.679 0 18.601 10.653 33.679 23.795 33.679z" fill="#EFEFEF"/><path d="M218.145 446.835c10.988 0 19.896-12.608 19.896-28.161 0-15.552-8.908-28.16-19.896-28.16-10.989 0-19.896 12.608-19.896 28.16 0 15.553 8.907 28.161 19.896 28.161z" fill="#6A6F71"/><path d="M219.711 436.99c7.063 0 12.788-8.103 12.788-18.099 0-9.995-5.725-18.099-12.788-18.099-7.062 0-12.787 8.104-12.787 18.099 0 9.996 5.725 18.099 12.787 18.099z" fill="#818A8E"/><path d="M208.069 398.057c-2.894 4.256-5.264 9.104-5.824 14.748l8.013 1.658-.291 2.634-11.453-3.01c.896-7.298 3.861-14.188 8.744-18.981l.811 2.951zM217.273 411.349l-2.336-.595-3.309-18.702c2.068-1.048 4.504-1.623 7.458-1.538-2.199.333-3.729 1.044-3.729 1.044l2.916 18.073-1 1.718zM231.455 397.744l-10.532 14.651 2.376 6.497 14.742-.218v-1.348l-11.887-1.886-1.064-2.953 7.666-12.924-1.301-1.819zM201.069 419.465c.327 5.331 1.727 9.877 3.797 13.934l-1.899 3.477c-3.124-5.506-4.697-11.42-4.715-17.743l2.817.332zM215.654 428.311l-6.087 12.223c3.646 3.571 7.536 4.561 11.501 4.773l.317 1.153c-5.305 1.176-10.406-.286-15.207-5.286l6.375-14.015 3.101 1.152zM226.023 421.39c0 1.382-1.45 4.804-2.585 5.929l4.842 15.587-2.221 1.608-6.722-18.1c.713-.894 3.113-3.634 3.592-5.39l3.094.366z" fill="#939A9D"/><path d="M221.467 450.583l-6.729-31.456-9.795-28.595 6.852-1.9 4.802 30.007 11.71 30.047-6.84 1.897zm-2.381-20.289l3.826 17.895 2.842-.787-6.668-17.108zm-11.672-38.456l5.549 16.2-2.719-16.984-2.83.784z" fill="#EFEFEF"/><path d="M205.92 443.789l-5.317-5.108 14.245-20.289 13.703-27.688 6.133 3.6-18.18 25.068-10.584 24.417zm-2.804-5.353l2.144 2.06 5.795-13.366-7.939 11.306zm26.238-45.036l-7.778 15.717 10.317-14.226-2.539-1.491z" fill="#EFEFEF"/><path d="M240.427 425.176l-24.86-5.324h-20.23l-.594-7.351 21.048 5.431 25.47.123-.834 7.121zm-15.481-5.279l13.826 2.961.34-2.893-14.166-.068zm-27.845-1.965h11.004l-11.239-2.9.235 2.9z" fill="#EFEFEF"/><path d="M215.669 429.691c4.214 0 7.63-4.835 7.63-10.8 0-5.964-3.416-10.799-7.63-10.799s-7.63 4.835-7.63 10.799c0 5.965 3.416 10.8 7.63 10.8z" fill="#EFEFEF"/><path d="M538.92 466c18.467 0 33.438-21.188 33.438-47.326 0-26.137-14.971-47.326-33.438-47.326-18.467 0-33.437 21.189-33.437 47.326 0 26.138 14.97 47.326 33.437 47.326z" fill="#1C1C1C"/><path d="M538.92 371.348h-23.598V466h23.598v-94.652z" fill="#1C1C1C"/><path d="M515.322 466c18.467 0 33.437-21.188 33.437-47.326 0-26.137-14.97-47.326-33.437-47.326s-33.438 21.189-33.438 47.326c0 26.138 14.971 47.326 33.438 47.326z" fill="#404344"/><path d="M514.317 452.353c13.142 0 23.795-15.078 23.795-33.679 0-18.6-10.653-33.679-23.795-33.679-13.141 0-23.795 15.079-23.795 33.679 0 18.601 10.654 33.679 23.795 33.679z" fill="#EFEFEF"/><path d="M514.317 446.835c10.989 0 19.897-12.608 19.897-28.161 0-15.552-8.908-28.16-19.897-28.16-10.988 0-19.896 12.608-19.896 28.16 0 15.553 8.908 28.161 19.896 28.161z" fill="#6A6F71"/><path d="M515.883 436.99c7.062 0 12.787-8.103 12.787-18.099 0-9.995-5.725-18.099-12.787-18.099-7.063 0-12.788 8.104-12.788 18.099 0 9.996 5.725 18.099 12.788 18.099z" fill="#818A8E"/><path d="M504.241 398.057c-2.894 4.256-5.264 9.104-5.824 14.748l8.012 1.658-.29 2.634-11.453-3.01c.895-7.298 3.861-14.188 8.743-18.981l.812 2.951zM513.445 411.349l-2.337-.595-3.309-18.702c2.069-1.048 4.505-1.623 7.458-1.538-2.199.333-3.729 1.044-3.729 1.044l2.916 18.073-.999 1.718zM527.627 397.744l-10.532 14.651 2.376 6.497 14.743-.218v-1.348l-11.888-1.886-1.063-2.953 7.666-12.924-1.302-1.819zM497.242 419.465c.326 5.331 1.726 9.877 3.796 13.934l-1.899 3.477c-3.124-5.506-4.696-11.42-4.714-17.743l2.817.332zM511.825 428.311l-6.087 12.223c3.646 3.571 7.537 4.561 11.501 4.773l.317 1.153c-5.304 1.176-10.405-.286-15.206-5.286l6.375-14.015 3.1 1.152zM522.196 421.39c0 1.382-1.451 4.804-2.585 5.929l4.841 15.587-2.22 1.608-6.722-18.1c.713-.894 3.113-3.634 3.592-5.39l3.094.366z" fill="#939A9D"/><path d="M517.64 450.583l-6.73-31.456-9.794-28.595 6.851-1.9 4.803 30.007 11.71 30.047-6.84 1.897zm-2.382-20.289l3.827 17.895 2.841-.787-6.668-17.108zm-11.672-38.456l5.549 16.2-2.719-16.984-2.83.784z" fill="#EFEFEF"/><path d="M502.093 443.789l-5.318-5.108 14.245-20.289 13.704-27.688 6.133 3.6-18.18 25.068-10.584 24.417zm-2.805-5.353l2.145 2.06 5.795-13.366-7.94 11.306zm26.237-45.036l-7.778 15.717 10.318-14.226-2.54-1.491z" fill="#EFEFEF"/><path d="M536.599 425.176l-24.859-5.324h-20.23l-.595-7.351 21.049 5.431 25.47.123-.835 7.121zm-15.481-5.279l13.827 2.961.339-2.893-14.166-.068zm-27.845-1.965h11.004l-11.238-2.9.234 2.9z" fill="#EFEFEF"/><path d="M511.841 429.691c4.214 0 7.63-4.835 7.63-10.8 0-5.964-3.416-10.799-7.63-10.799-4.213 0-7.629 4.835-7.629 10.799 0 5.965 3.416 10.8 7.629 10.8z" fill="#EFEFEF"/><path d="M772 381.933l-9.965-20.711c.321-12.095-1.773-21.764-7.616-27.665-50.037-12.578-103.065-20.973-103.065-20.973s-51.542-41.673-98.56-57.699C530.363 247.239 493.975 239 413.549 239c-72.531 0-95.064 3.213-117.352 10.72-45.433 15.304-65.787 32.825-89.865 51.008l-35.315 3.99c-7.35 13.082-12.326 33.497-13.642 52.606L146 372.141c.158 25.353.945 43.269 11.133 50.037l27.268 11.201c-9.799-4.026-17.237-59.024 25.166-75.106 39.18-2.006 52.714 31.467 58.906 75.101l212.295.005c-16.517-6.857-8.998-71.487 29.195-75.336 32.416 1.054 46.162 30.234 56.883 75.336l75.986-.027 21.895-16.757h97.496l3.387 16.757 1.811-6.83-3.387-17.114 3.687-12.716L772 381.933zm-513.612-82.77c14.082-23.488 55.01-48.956 118.279-45.141 51.321 3.094 84.848 55.865 84.848 55.865l-203.127-10.724zm383.548 13.421H502.004c-17.277-17.344-54.367-53.596-82.129-63.457 71.049-.348 120.272 4.577 119.088 4.513 43.51 11.242 77.517 40.992 102.973 58.944z" fill="#B3B4B6"/><path d="M772 381.933l-4.279 14.759-3.687 12.716 3.387 17.114-1.811 6.83-3.387-16.757h-97.496l-21.895 16.757-75.986.027c-10.721-45.101-24.468-74.281-56.883-75.335-38.193 3.848-45.712 68.477-29.195 75.335l-212.295-.005c-6.191-43.634-19.726-77.107-58.906-75.101-42.403 16.081-34.965 71.08-25.166 75.106l-27.268-11.201c-10.188-6.768-10.975-24.684-11.133-50.037 13.58 5.721 25.185-3.661 35.954-13.746 3.864-3.618 6.989-8.037 11.221-11.214 7.808-5.859 18.278-6.688 27.99-5.838 18.126 1.585 31.652 14.995 45.111 27.286 3.227 2.948 7.367 7.107 16.112 9.673 7.963 2.337 14.999 6.978 23.053 8.976 12.664 3.141 30.111 6.282 42.775 9.422 5.498 1.364 11.009 2.731 16.62 3.51 16.422 2.282 33.075-.517 49.418-3.31 13.577-2.32 39.565.152 43.142-13.199 3.726-13.907 16.892-38.371 44.83-41.298 16.38-1.716 36.867 2.375 49.789 12.625 12.923 10.251 26.386 29.633 42.319 33.818 10.036 2.637 20.6 1.995 30.954 1.335 41.678-2.656 136.632 1.871 146.712-8.248z" fill="#979797"/><path d="M157.134 422.178l27.268 11.201s-4.141-3.339-4.618-13.765c-.9-19.648 4.743-58.293 34.726-58.293 33.647 0 43.892 39.471 46.214 59.886 1.382 12.145 7.749 12.172 7.749 12.172h212.295s-4.14-3.339-4.618-13.765c-.9-19.648 4.743-58.293 34.726-58.293 33.647 0 43.892 39.471 46.214 59.886 1.382 12.145 9.756 12.172 9.756 12.172 9.038.122 35.365-12.603 26.663-29.529 0 0-7.68 9.354-16.085 11.754-5.646 1.611-12.972 2.425-13.443-4.862 0 0-6.026-55.495-54.019-55.495-31.663 0-43.618 34.597-40.457 65.962H270.481s-8.525-65.962-55.972-65.962c-42.589 0-40.092 63.886-40.092 63.886.001 2.894-7.289 4.265-17.283 3.045z" fill="#B3B4B6"/><path d="M466.566 381.062s-45.121-21.677-55.083-27.483c-9.961-5.807-104.478-12.729-115.475-9.268-10.998 3.461-26.815 30.963-26.815 30.963l9.618 38.849 180.564 1.114 7.191-34.175z" fill="#A0A2A4"/><path d="M283.82 414.022l20.496-5.918 96.025.085s61.551 8.247 61.598 8.259l-178.119-2.426z" fill="#8A8A8A"/><path d="M206.332 300.729c88.171 8.408 194.263 9.82 267.957 15.245 46.716 3.439 71.622 8.669 92.434 12.1-82.22.417-142.816-3.061-215.088-7.111-63.584-3.563-129.297-7.024-180.618-16.245l35.315-3.989z" fill="#B3B4B6"/><path d="M271.034 330.053l-13.941-1.161c-2.855-.237-4.976-2.753-4.739-5.618.236-2.866 2.743-4.996 5.596-4.757l13.941 1.16c2.855.238 4.977 2.754 4.739 5.618-.236 2.865-2.742 4.995-5.596 4.758z" fill="#9DA5AC"/><path d="M280.802 325.584c.067-.812-7.514-2.106-16.931-2.89-9.418-.785-17.108-.763-17.175.049-.067.811 7.514 2.105 16.932 2.889 9.418.785 17.107.763 17.174-.048z" fill="#E3ECF2"/><path d="M378.078 338.631l-13.941-1.16c-2.854-.238-4.976-2.754-4.739-5.618.237-2.866 2.743-4.996 5.597-4.758l13.941 1.161c2.854.237 4.976 2.753 4.739 5.618-.237 2.866-2.743 4.995-5.597 4.757z" fill="#9DA5AC"/><path d="M387.848 334.161c.067-.811-7.514-2.105-16.932-2.889-9.418-.785-17.107-.763-17.174.048-.067.812 7.514 2.106 16.932 2.89 9.417.785 17.107.763 17.174-.049z" fill="#E3ECF2"/><path d="M380.736 249.704c-76.687-5.224-117.51 25.977-132.432 55.015l225.985 11.254c0 .001-40.502-62.654-93.553-66.269zm-4.069 4.318c51.321 3.094 84.848 55.865 84.848 55.865l-203.127-10.724c14.082-23.487 55.011-48.956 118.279-45.141z" fill="#353738"/><path d="M363.688 251.514c-5.768 16.967-8.652 35.799-9.703 55.817H340.27c4.921-21.125 10.212-40.194 16.227-55.234l7.191-.583z" fill="#353738"/><path d="M347.031 309.668l-.629-.095c3.697-24.597 8.3-44.395 14.072-60.526l.598.216c-5.757 16.09-10.351 35.849-14.041 60.405z" fill="#252626"/><path d="M352.925 421.202l-2.018-5.934 1.126-7.112c-.887-1.962-13.587-31.198-10.991-87.785l.037-.143 5.318-10.768.643.32-5.286 10.7c-2.652 58.079 10.836 87.181 10.974 87.469l.049.101-1.133 7.155 1.96 5.765-.679.232z" fill="#5591B6"/><path d="M166.489 314.419l7.598 12.18c-4.22 5.678-8.764 9.325-13.846 9.591l-2.239-11.906s.537-9.865 8.487-9.865z" fill="#8A1D3A"/><path d="M166.489 314.419l7.598 12.18c-6.36-.126-12.297-.526-16.085-2.314 0-5.534 3.412-10.393 8.487-9.866z" fill="#A1324D"/><path opacity=".38" d="M171.357 324.743s-2.254-3.408-4.217-5.957c-1.324-1.718-1.831-3.343-4.031-2.135-5.461 2.998 8.248 8.092 8.248 8.092z" fill="#fff"/><path d="M270.124 421.239c-.016-.18-1.747-18.211-12.623-37.544a759.775 759.775 0 00-1.969-3.477c-10.239-18.036-17.638-31.067-14.183-65.835l.01-.091 6.914-10.286.594.403-6.812 10.136c-3.412 34.473 3.936 47.411 14.101 65.316a886.67 886.67 0 011.969 3.479c10.956 19.474 12.696 37.654 12.713 37.835l-.714.064zM469.132 421.3c-10.366-20.207-2.587-91.97-2.25-95.015l.01-.09 7.102-10.277.591.41-7 10.127c-.322 2.984-7.918 74.819 2.186 94.516l-.639.329z" fill="#5591B6"/><path d="M469.451 420.812h-198.97v.72h198.97v-.72z" fill="#4C80A4"/><path d="M762.035 361.222L772 381.933s-63.943 2.571-97.452 1.513c-47.588-1.502-99.786-11.375-107.825-55.372 17.354 19.332 75.1 33.038 75.1 33.038 48.289 5.912 99.84 5.696 120.212.11z" fill="#C1C1C1"/><path d="M646.629 338.209c-17.508-4.9-38.775-7.655-57.171-9.034a420.424 420.424 0 00-22.734-1.102s10.133 12.253 23.118 20.407c11.793 7.407 41.795 13.394 51.981 12.631l9.532-11.189-4.726-11.713z" fill="#798896"/><ellipse cx="606.476" cy="342.698" rx="5.672" ry="5.675" fill="#F2F2F2"/><ellipse cx="625.039" cy="347.857" rx="3.61" ry="3.611" fill="#F2F2F2"/><path d="M589.842 348.481c-12.986-8.154-23.118-20.407-23.118-20.407 6.564.13 14.351.473 22.734 1.102l-7.336 5.337 7.72 13.968z" fill="#F97830"/><path d="M646.629 338.209l4.726 11.714c30.926 2.937 75.726 3.221 96.756 0l-1.112-11.714c-20.505 4.33-67.192 3.617-100.37 0z" fill="#404344"/><path d="M746.81 338.209l7.61-4.652c5.706 4.535 7.493 14.868 7.616 27.665l-13.925-11.299-1.301-11.714z" fill="#798896"/><path d="M746.81 338.209l1.3 11.714 13.925 11.299-.209-5.335-11.415-7.406-1.414-8.556 5.423-6.368-7.61 4.652zM641.823 361.112l9.532-11.189-4.726-11.714c-4.246-1.223-9.316-2.362-14.661-3.471l6.277 13.743-13.109 11.12c5.667 1.003 11.271 1.702 16.687 1.511z" fill="#62707D"/><path d="M704.83 347.313c-19.016 0-39.43-1.098-55.712-2.798l.198-1.911c30.285 3.162 74.895 4.241 97.916.011l.344 1.889c-10.779 1.98-26.236 2.809-42.746 2.809z" fill="#1C1C1C"/><path d="M644.186 341.246c-23.319-5.579-46.475-10.029-68.974-9.917 13.355 16.422 34.338 23.713 58.41 27.302 0 0-42.319-9.764-50.403-24.119 13.611-1.038 36.888 2.653 60.967 6.734z" fill="#E3ECF2"/><path d="M748.11 339.572l6.223 1.027 3.262 11.634-.833-12.335-8.652-.326z" fill="#62707D"/><path opacity=".38" d="M638.246 356.694s9.773-4.196 7.329-13.627c-2.443-9.432-72.396-13.628-72.396-13.628s58.84 12.018 62.044 16.907c3.27 4.99 3.023 10.348 3.023 10.348zM753.655 336.459c1.073-1.077 2.638-.018 4.466 4.176 2.943 6.754 2.994 17.444 2.994 17.444s-1.04-8.17-4.348-14.927c-1.771-3.616-5.111-4.686-3.112-6.693z" fill="#fff"/><path d="M754.419 333.557c-8.606-3.541-17.921-6.59-27.855-9.205-5.508-1.451-15.573-7.388-21.483-8.378-64.126-10.747-199.092-11.378-207.05-3.39l256.388 20.973z" fill="#A0A2A4"/><path d="M705.082 315.974c5.91.99 15.975 6.927 21.483 8.378-47.811 4.122-107.925-.075-168.648-8.378 59.617-.47 116.359.419 147.165 0z" fill="#A0A2A4"/><path d="M566.656 328.428c-19.632-3.787-42.734-7.15-68.664-9.998l-.468-.052 2.85-7.228.669.265-2.505 6.351c25.76 2.839 48.719 6.187 68.254 9.955l-.136.707z" fill="#5591B6"/><path d="M455.996 294.198h-23.829c-13.071.485-11.91 26.652 1.161 26.166h18.993l12.989-5.773-9.314-20.393z" fill="#353738"/><path d="M454.998 389.643H276.043a2.403 2.403 0 01-2.399-2.408 2.403 2.403 0 012.399-2.408h178.955a2.403 2.403 0 012.399 2.408 2.404 2.404 0 01-2.399 2.408z" fill="#8E8F8F"/><path d="M772 381.933c-26.824 1.054-107 1.611-153.455-1.735-31.457-2.266-52.732-5.21-62.752-15.268 1.164 23.107 90.541 46.591 209.818 44.479 5.033-6.415 6.013-14.325 6.389-27.476z" fill="#979797"/><path d="M749.181 389.314H694.44v15.003h54.741v-15.003z" fill="#fff"/><path d="M694.44 386.811v2.504h54.741v15.002l4.126-17.506H694.44z" fill="#898989"/><path d="M556.438 392.377l-.305-.651 31.55-14.91 12.463-23.667.633.337-12.573 23.879-.109.052-31.659 14.96z" fill="#5591B6"/><path d="M765.61 433.352l1.811-6.83-1.811-17.114c-9.158-.795-69.878-1.373-102.861-1.204-29.054.148-74.805 7.399-74.805 7.399.214 5.694-5.059 12.327-21.098 17.776l75.986-.027 21.895-16.757h96.576l4.307 16.757z" fill="#B3B4B6"/><path d="M672.199 410.392s-5.198-4.475-18.281-9.663c-10.438-4.139-34.664-6.681-51.16-2.165-13.897 3.805-14.814 17.039-14.814 17.039h49.699l34.556-5.211z" fill="#B3B4B6"/><path d="M587.944 415.602h49.699l15.187-11.271c5.235 1.54 9.293 4.334 9.293 4.334l-19.584 14.411c-26.056 1.029-54.595-.216-54.595-7.474z" fill="#C1C1C1"/><path d="M652.829 404.331s-28.07-6.999-47.322-1.484c-15.252 4.368-8.684 12.755-8.684 12.755 7.854 3.11 35.835 3.357 40.82 0l15.186-11.271z" fill="#1C1C1C"/><path d="M618.516 416.505c3.096 0 5.606-3.191 5.606-7.126 0-3.936-2.51-7.127-5.606-7.127s-5.606 3.191-5.606 7.127c0 3.935 2.51 7.126 5.606 7.126z" fill="#fff"/><path d="M642.832 433.352l24.302-12.576h92.569l5.907 12.576-4.307-16.758h-96.576l-21.895 16.758z" fill="#404344"/><path d="M497.545 334.927h6.445c1.056 0 1.965.893 1.965 2.06v3.167c0 1.167-.909 2.06-1.965 2.06h-6.445c-1.056 0-1.965-.893-1.965-2.06v-3.167c0-1.167.909-2.06 1.965-2.06z" fill="#F97830" stroke="#fff" stroke-width="2"/><path d="M625 241.5v-1h-1v1h1zm0 102.5l5.774-10h-11.548L625 344zm193.5-103.5H625v2h193.5v-2zm-194.5 1V335h2v-93.5h-2zM574.5 565v1h-1v-1h1zm0-230.5l5.774 10h-11.548l5.774-10zM826 566H574.5v-2H826v2zm-252.5-1V343.5h2V565h-2z" fill="#1B6FB7"/><path d="M385 574.501h1v1h-1v-1zm0-165.001h-1v-1h1v1zm229 0l-10 5.774v-11.547l10 5.773zM384 574.501V409.5h2v165.001h-2zm1-166.001h220v2H385v-2zm0 167.001h-89.5v-2H385v2zM1 337.5H0v1h1v-1zm485 0l-10-5.774v11.547l10-5.773zm-485 1h476v-2H1v2zm1-1v-80.001H0V337.5h2zM606 340.5l5.774-10h-11.548l5.774 10zM605 0v331.5h2V0h-2z" fill="#1B6FB7"/></svg><svg viewBox="0 0 1 67" fill="none" id="vehicles-decor-between-item" xmlns="http://www.w3.org/2000/svg"><path opacity=".5" stroke="url(#bnpaint0_linear_61_132)" d="M.5 0v67"/><defs><linearGradient id="bnpaint0_linear_61_132" x1="-1" y1="2.5" x2="-1" y2="67" gradientUnits="userSpaceOnUse"><stop stop-color="#D8D8D8" stop-opacity="0"/><stop offset=".547" stop-color="#D8D8D8"/><stop offset="1" stop-color="#D8D8D8" stop-opacity="0"/></linearGradient></defs></svg><svg fill="none" viewBox="0 0 25 25" id="vehicles-mini-1" xmlns="http://www.w3.org/2000/svg"><path d="M24.883 12.442c0 6.87-5.57 12.441-12.441 12.441C5.57 24.883 0 19.313 0 12.442 0 5.57 5.57 0 12.442 0c6.87 0 12.441 5.57 12.441 12.442z" fill="#fff"/><path d="M16.408 17.97h-1.994l.013-1.192h1.98c.683 0 1.251-.164 1.706-.493.454-.335.796-.8 1.023-1.398.232-.603.347-1.306.347-2.112V12.1c0-.633-.065-1.195-.196-1.686-.131-.496-.324-.914-.577-1.253a2.49 2.49 0 00-.932-.782 2.82 2.82 0 00-1.252-.266h-2.151v-1.2h2.15c.626 0 1.197.121 1.712.364.516.238.96.585 1.332 1.04.376.451.664.998.865 1.641.201.638.302 1.357.302 2.158v.66c0 .8-.1 1.522-.302 2.165a4.677 4.677 0 01-.872 1.633c-.376.45-.83.798-1.364 1.04-.529.239-1.126.358-1.79.358zM15.09 6.913V17.97h-1.266V6.91h1.266zM4.147 8.294h8.295v.83H4.147v-.83zM4.147 11.06h8.295v.829H4.147v-.83zM4.147 13.824h8.295v.83H4.147v-.83zM4.147 16.589h8.295v.83H4.147v-.83z" fill="#1B6FB7"/></svg><svg fill="none" viewBox="0 0 25 25" id="vehicles-mini-1-2" xmlns="http://www.w3.org/2000/svg"><path d="M25 12.442c0 6.87-5.57 12.441-12.442 12.441-6.871 0-12.441-5.57-12.441-12.441C.117 5.57 5.687 0 12.558 0 19.43 0 25 5.57 25 12.442z" fill="#fff"/><path d="M16.165 17.916h-2.216l.014-1.144h2.202c.758 0 1.39-.158 1.895-.474a2.96 2.96 0 001.138-1.341c.257-.579.386-1.254.386-2.027v-.649c0-.607-.073-1.147-.219-1.618a3.275 3.275 0 00-.641-1.203 2.71 2.71 0 00-1.035-.75c-.404-.17-.868-.256-1.393-.256h-2.39V7.302h2.39c.695 0 1.33.117 1.903.35a4.09 4.09 0 011.48.999c.418.432.739.957.962 1.575.224.612.335 1.302.335 2.07v.634c0 .768-.111 1.46-.335 2.078a4.232 4.232 0 01-2.486 2.566c-.588.228-1.251.343-1.99.343zM14.7 7.302v10.614h-1.407V7.302H14.7zM4.098 9.027l7.691-2.06.258.96L4.356 9.99l-.258-.962zM4.098 12.014l7.691-2.061.258.961-7.691 2.061-.258-.961zM4.098 15l7.691-2.06.258.96-7.691 2.061L4.098 15zM4.098 17.986l7.691-2.061.258.961-7.691 2.061-.258-.961z" fill="#1B6FB7"/></svg><svg fill="none" viewBox="0 0 25 25" id="vehicles-mini-2" xmlns="http://www.w3.org/2000/svg"><path d="M24.883 12.442c0 6.87-5.57 12.441-12.441 12.441C5.57 24.883 0 19.313 0 12.442 0 5.57 5.57 0 12.442 0c6.87 0 12.441 5.57 12.441 12.442z" fill="#fff"/><g clip-path="url(#bqclip0_418_160)"><path d="M11.348 9.399h2.306a.324.324 0 000-.647h-2.306a.324.324 0 000 .647zM13.095 7.514a.602.602 0 00-1.19 0 .753.753 0 00-.71.75h2.612a.753.753 0 00-.712-.75zM9.385 14.329a3.115 3.115 0 106.23 0c0-.726-.249-1.393-.666-1.922a13.42 13.42 0 01-1.011-1.479V9.893H11.08v1.008a15.365 15.365 0 01-1.029 1.506 3.092 3.092 0 00-.667 1.922z" fill="#1B6FB7"/><path stroke="#1B6FB7" d="M8.024 15.011l8.693-2.329M8.283 12.517l8.693 2.329M12.5 12v6"/></g><defs><clipPath id="bqclip0_418_160"><path fill="#fff" transform="rotate(180 9.5 10)" d="M0 0h13v13H0z"/></clipPath></defs></svg><svg fill="none" viewBox="0 0 25 25" id="vehicles-mini-3" xmlns="http://www.w3.org/2000/svg"><path d="M24.883 12.442c0 6.87-5.57 12.441-12.441 12.441C5.57 24.883 0 19.313 0 12.442 0 5.57 5.57 0 12.442 0c6.87 0 12.441 5.57 12.441 12.442z" fill="#fff"/><g clip-path="url(#brclip0_66_36966)"><path d="M6.28 15.976a.308.308 0 00.092-.222v-1.628a.23.23 0 01.23-.23h5.09c.17 0 .308-.138.308-.308v-3.167a.308.308 0 00-.308-.308h-5.09a.23.23 0 01-.23-.23V8.25a.308.308 0 00-.528-.22L2.092 11.78a.308.308 0 00-.092.216c0 .084.033.163.092.221l3.752 3.752a.308.308 0 00.435.006z" fill="#F97830"/></g><g clip-path="url(#brclip1_66_36966)"><path d="M18.72 15.976a.308.308 0 01-.092-.222v-1.628a.23.23 0 00-.23-.23h-5.09a.308.308 0 01-.308-.308v-3.167c0-.17.138-.308.308-.308h5.09a.23.23 0 00.23-.23V8.25a.308.308 0 01.528-.22l3.752 3.751a.308.308 0 01.092.216.308.308 0 01-.092.221l-3.752 3.752a.308.308 0 01-.435.006z" fill="#F97830"/></g><defs><clipPath id="brclip0_66_36966"><path fill="#fff" transform="rotate(90 2.5 9.5)" d="M0 0h10v10H0z"/></clipPath><clipPath id="brclip1_66_36966"><path fill="#fff" transform="matrix(0 1 1 0 13 7)" d="M0 0h10v10H0z"/></clipPath></defs></svg><svg fill="none" viewBox="0 0 25 25" id="vehicles-mini-4" xmlns="http://www.w3.org/2000/svg"><path d="M24.883 12.442c0 6.87-5.57 12.441-12.441 12.441C5.57 24.883 0 19.313 0 12.442 0 5.57 5.57 0 12.442 0c6.87 0 12.441 5.57 12.441 12.442z" fill="#fff"/><path d="M13.653 16.601h-2.307a.324.324 0 000 .647h2.307a.324.324 0 000-.647zM11.905 18.486a.602.602 0 001.19 0 .753.753 0 00.71-.75h-2.612c0 .402.316.727.713.75zM12.5 7.866a.431.431 0 00.432-.431V6.43a.431.431 0 10-.863 0v1.004c0 .238.193.43.431.43zM9.67 8.494a.431.431 0 00.698-.506l-.59-.812a.431.431 0 00-.697.506l.589.812zM15.33 14.816a.432.432 0 00-.698.507l.59.812a.43.43 0 00.602.096.431.431 0 00.096-.603l-.59-.812zM8.62 9.941l-.955-.31a.43.43 0 10-.267.82l.955.31a.432.432 0 10.267-.82zM17.602 12.86l-.955-.31a.432.432 0 00-.266.82l.954.31a.43.43 0 10.267-.82zM8.353 12.55l-.955.31a.43.43 0 10.267.82l.954-.31a.431.431 0 10-.266-.82zM16.514 10.783a.431.431 0 00.133-.022l.955-.31a.431.431 0 10-.267-.82l-.954.31a.431.431 0 00.133.842zM9.67 14.816l-.59.812a.43.43 0 10.697.507l.59-.812a.43.43 0 10-.697-.507zM15.222 7.176l-.59.812a.431.431 0 10.698.506l.59-.812a.431.431 0 00-.698-.506zM15.615 11.671a3.115 3.115 0 10-6.23 0c0 .726.249 1.393.666 1.922.365.463.711.97 1.011 1.479v1.035h2.858v-1.008c.297-.495.681-1.065 1.028-1.506.418-.53.667-1.195.667-1.922z" fill="#1B6FB7"/></svg><svg fill="none" viewBox="0 0 25 25" id="vehicles-mini-5" xmlns="http://www.w3.org/2000/svg"><path d="M24.883 12.442c0 6.87-5.57 12.441-12.441 12.441C5.57 24.883 0 19.313 0 12.442 0 5.57 5.57 0 12.442 0c6.87 0 12.441 5.57 12.441 12.442z" fill="#fff"/><path d="M9.936 12V3.54h5.58v1.212h-4.032v2.4h3.756v1.212h-3.756V12H9.936z" fill="#F97830"/><g clip-path="url(#btclip0_70_198)"><path d="M6.28 18.976a.308.308 0 00.092-.222v-1.628a.23.23 0 01.23-.23h5.09c.17 0 .308-.137.308-.307V13.42a.308.308 0 00-.308-.308h-5.09a.23.23 0 01-.23-.23V11.25a.308.308 0 00-.528-.221l-3.752 3.752a.308.308 0 00-.092.216c0 .083.033.162.092.22l3.752 3.752a.308.308 0 00.435.006z" fill="#F97830"/></g><g clip-path="url(#btclip1_70_198)"><path d="M18.72 18.976a.308.308 0 01-.092-.222v-1.628a.23.23 0 00-.23-.23h-5.09A.308.308 0 0113 16.59V13.42c0-.17.138-.308.308-.308h5.09a.23.23 0 00.23-.23V11.25a.308.308 0 01.528-.221l3.752 3.752a.308.308 0 01.092.216.308.308 0 01-.092.22l-3.752 3.752a.308.308 0 01-.435.006z" fill="#F97830"/></g><defs><clipPath id="btclip0_70_198"><path fill="#fff" transform="rotate(90 1 11)" d="M0 0h10v10H0z"/></clipPath><clipPath id="btclip1_70_198"><path fill="#fff" transform="matrix(0 1 1 0 13 10)" d="M0 0h10v10H0z"/></clipPath></defs></svg><svg fill="none" viewBox="0 0 25 25" id="vehicles-mini-two-1" xmlns="http://www.w3.org/2000/svg"><path d="M24.883 12.442c0 6.87-5.57 12.441-12.441 12.441C5.57 24.883 0 19.313 0 12.442 0 5.57 5.57 0 12.442 0c6.87 0 12.441 5.57 12.441 12.442z" fill="#fff"/><g clip-path="url(#buclip0_418_156)" fill="#1B6FB7"><path d="M13.652 16.601h-2.306a.324.324 0 000 .647h2.306a.324.324 0 000-.647zM11.905 18.486a.602.602 0 001.19 0 .753.753 0 00.71-.75h-2.612c0 .402.316.727.712.75zM15.615 11.671a3.115 3.115 0 10-6.23 0c0 .726.249 1.393.666 1.922.365.463.711.97 1.011 1.479v1.035h2.857v-1.008c.298-.495.682-1.065 1.029-1.506.417-.53.667-1.195.667-1.922z"/></g><path d="M5.291 10.084L4 10.661l.714-1.868.577 1.291zM8.323 6.57l-1.401-.193 1.593-1.209-.192 1.401zM16.767 6.466l-.223-1.397 1.62 1.173-1.397.224zM19.378 10.304L19.926 9l.756 1.852-1.304-.548zM3.5 12.5a9 9 0 0118 0" stroke="#1B6FB7"/><path d="M12.5 5l-1-1h2l-1 1z" stroke="#1B6FB7"/><defs><clipPath id="buclip0_418_156"><path fill="#fff" transform="translate(6 6)" d="M0 0h13v13H0z"/></clipPath></defs></svg><svg fill="none" viewBox="0 0 13 13" id="vehicles-mini-two-2" xmlns="http://www.w3.org/2000/svg"><path d="M18.883 5.442c0 6.87-5.57 12.441-12.441 12.441C-.43 17.883-6 12.313-6 5.442-6-1.43-.43-7 6.442-7c6.87 0 12.441 5.57 12.441 12.442z" fill="#fff"/><path d="M5.348 2.399h2.306a.324.324 0 000-.647H5.348a.324.324 0 000 .647zM7.095.514a.602.602 0 00-1.19 0 .753.753 0 00-.71.75h2.612a.753.753 0 00-.712-.75zM3.385 7.329a3.115 3.115 0 106.23 0c0-.726-.249-1.393-.666-1.922-.365-.463-.711-.97-1.011-1.479V2.893H5.08v1.008a15.354 15.354 0 01-1.029 1.506 3.091 3.091 0 00-.667 1.922z" fill="#1B6FB7"/><path stroke="#1B6FB7" d="M2.024 8.011l8.693-2.329M2.283 5.517l8.693 2.329M6.5 5v6"/></svg><svg fill="none" viewBox="0 0 25 25" id="vehicles-mini-two-3" xmlns="http://www.w3.org/2000/svg"><path d="M24.883 12.442c0 6.87-5.57 12.441-12.441 12.441C5.57 24.883 0 19.313 0 12.442 0 5.57 5.57 0 12.442 0c6.87 0 12.441 5.57 12.441 12.442z" fill="#fff"/><rect x="4" y="4" width="17" height="17" rx="2" fill="#ED1927"/><path d="M8.59 15.066c-.292 0-.536-.056-.732-.168a1.094 1.094 0 01-.444-.504c-.1-.22-.156-.49-.168-.81l.762-.15c.008.188.03.354.066.498.04.144.098.256.174.336.08.076.184.114.312.114.144 0 .246-.042.306-.126a.573.573 0 00.09-.33.884.884 0 00-.144-.522 2.246 2.246 0 00-.384-.408l-.612-.54a1.91 1.91 0 01-.414-.492c-.1-.184-.15-.41-.15-.678 0-.384.112-.68.336-.888.224-.208.53-.312.918-.312.228 0 .418.036.57.108a.862.862 0 01.36.288c.092.124.16.266.204.426.044.156.072.322.084.498l-.756.132a2.348 2.348 0 00-.054-.408.536.536 0 00-.138-.282c-.064-.068-.16-.102-.288-.102a.373.373 0 00-.306.132.49.49 0 00-.102.318c0 .164.034.3.102.408.068.104.166.212.294.324l.606.534c.2.168.37.366.51.594.144.224.216.496.216.816 0 .232-.052.438-.156.618-.1.18-.242.322-.426.426-.18.1-.392.15-.636.15zM10.817 15v-4.206h-.774v-.654h2.424v.654h-.762V15h-.888zm3.389.066c-.345 0-.618-.064-.822-.192a1.061 1.061 0 01-.439-.552 2.476 2.476 0 01-.132-.852v-1.818c0-.328.044-.608.132-.84.088-.236.235-.416.438-.54.205-.124.479-.186.823-.186.351 0 .628.062.828.186.204.124.35.304.438.54.091.232.138.512.138.84v1.824c0 .324-.046.606-.138.846-.088.236-.234.42-.438.552-.2.128-.477.192-.829.192zm0-.654c.148 0 .255-.032.324-.096a.474.474 0 00.144-.264c.024-.112.036-.234.036-.366v-2.238c0-.136-.013-.258-.037-.366a.44.44 0 00-.143-.252c-.069-.064-.176-.096-.324-.096-.14 0-.246.032-.319.096a.44.44 0 00-.144.252c-.024.108-.036.23-.036.366v2.238c0 .132.01.254.03.366.024.112.072.2.145.264.072.064.18.096.324.096zm2.06.588v-4.86h1.428c.292 0 .528.054.708.162a.94.94 0 01.402.474c.088.204.132.452.132.744 0 .316-.054.572-.162.768a.967.967 0 01-.456.42 1.63 1.63 0 01-.684.132h-.48V15h-.888zm.888-2.784h.336c.16 0 .284-.022.372-.066a.367.367 0 00.186-.222c.036-.104.054-.242.054-.414 0-.176-.014-.318-.042-.426a.357.357 0 00-.168-.246c-.084-.052-.218-.078-.402-.078h-.336v1.452z" fill="#fff"/></svg><svg fill="none" viewBox="0 0 25 25" id="vehicles-mini-two-4" xmlns="http://www.w3.org/2000/svg"><path d="M24.883 12.442c0 6.87-5.57 12.441-12.441 12.441C5.57 24.883 0 19.313 0 12.442 0 5.57 5.57 0 12.442 0c6.87 0 12.441 5.57 12.441 12.442z" fill="#fff"/><path d="M6 14c0-2 .5-2.5 2-2.5S9 14 11 14s1.5-2.5 3.5-2.5 1.5 2.5 3 2.5c1.2 0 1.5-1 1.5-3" stroke="#1B6FB7"/></svg><svg fill="none" viewBox="0 0 25 25" id="vehicles-mini-two-5" xmlns="http://www.w3.org/2000/svg"><path d="M24.883 12.442c0 6.87-5.57 12.441-12.441 12.441C5.57 24.883 0 19.313 0 12.442 0 5.57 5.57 0 12.442 0c6.87 0 12.441 5.57 12.441 12.442z" fill="#fff"/><path d="M9.732 21v-9.72h2.388c.432 0 .82.04 1.164.12.352.08.652.216.9.408.256.184.452.436.588.756.136.32.204.724.204 1.212 0 .392-.056.728-.168 1.008-.104.28-.26.504-.468.672a1.77 1.77 0 01-.78.324c.384.064.7.2.948.408.256.2.444.464.564.792.128.328.192.724.192 1.188 0 .464-.06.876-.18 1.236a2.226 2.226 0 01-.516.888 2.142 2.142 0 01-.852.528c-.336.12-.732.18-1.188.18H9.732zm1.776-1.248h.672c.536 0 .9-.128 1.092-.384.192-.264.288-.668.288-1.212 0-.392-.048-.708-.144-.948a.982.982 0 00-.456-.552c-.208-.12-.488-.18-.84-.18h-.612v3.276zm0-4.5h.6c.352 0 .624-.052.816-.156a.818.818 0 00.396-.48c.08-.216.12-.488.12-.816 0-.344-.06-.608-.18-.792a.823.823 0 00-.516-.384c-.232-.072-.528-.108-.888-.108h-.348v2.736z" fill="#FFA331"/><g clip-path="url(#byclip0_416_148)"><path d="M7.565 11.547c.062-.023.103-.076.103-.135V9.816h4.165c.092 0 .167-.065.167-.146V7.337c0-.08-.075-.146-.167-.146H7.668V5.587c0-.059-.04-.112-.103-.135a.185.185 0 00-.181.032L4.049 8.392A.137.137 0 004 8.496c0 .038.018.075.049.103l3.335 2.917c.047.041.119.054.181.031z" fill="#FFA331"/></g><g clip-path="url(#byclip1_416_148)"><path d="M17.435 5.453c-.063.023-.103.076-.103.135v1.597h-4.165c-.092 0-.167.065-.167.146v2.332c0 .08.075.146.167.146h4.165v1.604c0 .059.04.112.102.134.063.023.134.01.182-.031l3.335-2.908A.137.137 0 0021 8.504a.138.138 0 00-.049-.103l-3.335-2.917a.184.184 0 00-.181-.031z" fill="#FFA331"/></g><defs><clipPath id="byclip0_416_148"><path fill="#fff" transform="rotate(90 3.5 8.5)" d="M0 0h7v8H0z"/></clipPath><clipPath id="byclip1_416_148"><path fill="#fff" transform="rotate(-90 12.5 -.5)" d="M0 0h7v8H0z"/></clipPath></defs></svg><svg fill="none" viewBox="0 0 25 25" id="vehicles-mini-two-6" xmlns="http://www.w3.org/2000/svg"><path d="M24.883 12.442c0 6.87-5.57 12.441-12.441 12.441C5.57 24.883 0 19.313 0 12.442 0 5.57 5.57 0 12.442 0c6.87 0 12.441 5.57 12.441 12.442z" fill="#fff"/><path d="M8.458 8L21 13.8H7V18h9.917" stroke="#1B6FB7"/><mask id="bza" fill="#fff"><path d="M14 17.5a2.5 2.5 0 01-5 0h5z"/></mask><path d="M14 17.5a2.5 2.5 0 01-5 0h5z" stroke="#1B6FB7" stroke-width="2" mask="url(#bza)"/><mask id="bzb" fill="#fff"><path d="M11.575 8.928a1.6 1.6 0 11-2.815-1.52l1.408.76 1.407.76z"/></mask><path d="M11.575 8.928a1.6 1.6 0 11-2.815-1.52l1.408.76 1.407.76z" stroke="#1B6FB7" stroke-width="2" mask="url(#bzb)"/><mask id="bzc" fill="#fff"><path d="M14.197 10.288a2.186 2.186 0 11-3.903-1.973l1.951.986 1.952.987z"/></mask><path d="M14.197 10.288a2.186 2.186 0 11-3.903-1.973l1.951.986 1.952.987z" stroke="#1B6FB7" stroke-width="2" mask="url(#bzc)"/></svg><svg fill="none" viewBox="0 0 25 25" id="vehicles-mini-two-7" xmlns="http://www.w3.org/2000/svg"><path d="M24.883 12.442c0 6.87-5.57 12.441-12.441 12.441C5.57 24.883 0 19.313 0 12.442 0 5.57 5.57 0 12.442 0c6.87 0 12.441 5.57 12.441 12.442z" fill="#fff"/><path stroke="#1B6FB7" d="M5 17.5h6M5 12.5h6M9.5 18.5c-1.166-.333-3.4-1.6-3-4 .5-3 3-2.5 3-5 0-2-2-2.833-3-3M5 7.5h6"/><path d="M12.5 21a8.501 8.501 0 006.01-14.51A8.5 8.5 0 0012.5 4v17z" fill="#1B6FB7"/></svg><svg fill="none" viewBox="0 0 25 25" id="vehicles-mini-two-8" xmlns="http://www.w3.org/2000/svg"><path d="M24.883 12.442c0 6.87-5.57 12.441-12.441 12.441C5.57 24.883 0 19.313 0 12.442 0 5.57 5.57 0 12.442 0c6.87 0 12.441 5.57 12.441 12.442z" fill="#fff"/><path d="M9.83 16V8.95h2.98c.753 0 1.337.18 1.75.54.413.353.62.85.62 1.49 0 .42-.093.78-.28 1.08-.187.3-.45.53-.79.69-.34.153-.74.23-1.2.23l.16-.16h.27c.273 0 .517.07.73.21.22.14.4.363.54.67l1.01 2.3h-1.14l-1-2.31c-.1-.273-.257-.45-.47-.53a2.147 2.147 0 00-.77-.12h-1.37V16H9.83zm1.04-3.75h1.77c.5 0 .877-.107 1.13-.32.26-.213.39-.52.39-.92 0-.407-.13-.713-.39-.92-.253-.207-.63-.31-1.13-.31h-1.77v2.47z" fill="#1B6FB7"/><rect x="5.5" y="5.5" width="14" height="14" rx="1.5" stroke="#1B6FB7"/></svg></svg>